<svg xmlns="http://www.w3.org/2000/svg" viewBox="0 0 220.64 220.63"><defs><style>.cls-1{fill:#334d3e;}</style></defs><g id="Layer_2"><path class="cls-1" d="M191.45,50.45V40a30.68,30.68,0,1,0-61.36,0V50.45H119a59.88,59.88,0,1,0-91.31,59.86A59.86,59.86,0,0,0,0,160.77v59.86H220.64V50.45ZM148.92,40a11.85,11.85,0,0,1,23.69,0V50.45H148.92ZM24.32,80.38A41,41,0,1,1,59.87,100.9,41,41,0,0,1,24.32,80.38ZM100.9,201.8H18.83v-41a41.09,41.09,0,0,1,41-41,59.64,59.64,0,0,0,41-16.31V201.8Zm100.9,0H119.73V119.73H201.8ZM119.73,100.9V69.28H201.8V100.9Z"/></g></g></svg>